<svg xmlns="http://www.w3.org/2000/svg" viewBox="0 0 800 600">
  <rect width="800" height="600" fill="#0f172a" />
  <rect x="95" y="190" width="610" height="220" rx="28" fill="#111827" stroke="#334155" stroke-width="8" />
  <g fill="#1f2937">
    <rect x="130" y="225" width="46" height="38" rx="8" />
    <rect x="185" y="225" width="46" height="38" rx="8" />
    <rect x="240" y="225" width="46" height="38" rx="8" />
    <rect x="295" y="225" width="46" height="38" rx="8" />
    <rect x="350" y="225" width="46" height="38" rx="8" />
    <rect x="405" y="225" width="46" height="38" rx="8" />
    <rect x="460" y="225" width="46" height="38" rx="8" />
    <rect x="515" y="225" width="46" height="38" rx="8" />
    <rect x="570" y="225" width="96" height="38" rx="8" />
    <rect x="130" y="276" width="74" height="38" rx="8" />
    <rect x="213" y="276" width="46" height="38" rx="8" />
    <rect x="268" y="276" width="46" height="38" rx="8" />
    <rect x="323" y="276" width="46" height="38" rx="8" />
    <rect x="378" y="276" width="46" height="38" rx="8" />
    <rect x="433" y="276" width="46" height="38" rx="8" />
    <rect x="488" y="276" width="46" height="38" rx="8" />
    <rect x="543" y="276" width="123" height="38" rx="8" />
    <rect x="130" y="327" width="101" height="38" rx="8" />
    <rect x="240" y="327" width="46" height="38" rx="8" />
    <rect x="295" y="327" width="46" height="38" rx="8" />
    <rect x="350" y="327" width="46" height="38" rx="8" />
    <rect x="405" y="327" width="46" height="38" rx="8" />
    <rect x="460" y="327" width="46" height="38" rx="8" />
    <rect x="515" y="327" width="151" height="38" rx="8" />
  </g>
  <g>
    <rect x="130" y="225" width="46" height="38" rx="8" fill="#ef4444" />
    <rect x="185" y="225" width="46" height="38" rx="8" fill="#f97316" />
    <rect x="240" y="225" width="46" height="38" rx="8" fill="#eab308" />
    <rect x="295" y="225" width="46" height="38" rx="8" fill="#22c55e" />
    <rect x="350" y="225" width="46" height="38" rx="8" fill="#06b6d4" />
    <rect x="405" y="225" width="46" height="38" rx="8" fill="#3b82f6" />
    <rect x="460" y="225" width="46" height="38" rx="8" fill="#8b5cf6" />
    <rect x="515" y="225" width="46" height="38" rx="8" fill="#ec4899" />
  </g>
</svg>
